<svg width="203" height="258" viewBox="0 0 203 258" fill="none" xmlns="http://www.w3.org/2000/svg">
<g clip-path="url(#clip0)">
<g style="mix-blend-mode:multiply" opacity="0.3">
<path d="M0 244.636C0 252.017 45.4726 258 101.5 258C157.527 258 203.026 252.017 203.026 244.636C203.026 237.256 157.553 231.267 101.5 231.267C45.447 231.267 0 237.256 0 244.636Z" fill="#141007"/>
</g>
<path d="M94.5701 104.205L85.8599 95.2742C85.8599 95.2742 96.6324 82.5833 100.757 77.9772C104.645 73.621 110.492 66.7278 114.751 62.7367C116.032 61.5708 123.077 72.2116 119.452 75.9593L94.5701 104.205Z" fill="#543E3E"/>
<path d="M83.0419 156.486C83.0419 156.486 87.7748 218.14 90.4199 231.254C90.4199 231.254 86.3786 238.692 82.933 240.729C79.4873 242.766 75.7919 242.58 75.715 244.06C75.6381 245.54 86.7693 245.386 88.3064 244.355C89.8435 243.323 91.5536 238.967 93.4621 237.949C95.3707 236.93 96.6132 234.406 95.3131 230.998C94.0129 227.59 94.8904 156.736 94.8904 156.736L83.0419 156.486Z" fill="#FFCAA1"/>
<path d="M81.1335 241.453L83.3302 243.009C85.1507 242.716 86.8294 241.847 88.1209 240.53C90.3048 238.314 95.4285 231.203 95.4285 231.203C95.9135 231.977 96.2077 232.855 96.2867 233.765C96.2867 234.95 95.5374 239.473 95.4221 240.754L95.3004 242.036L94.4422 241.978L94.7625 237.25C94.7625 237.25 93.1549 238.602 92.6361 238.973C91.7203 239.914 90.9613 240.995 90.3881 242.177C89.7477 243.458 89.5235 244.508 87.8647 244.963C86.2059 245.418 82.0365 245.553 80.0575 245.444C77.6366 245.316 75.4398 245.059 75.2669 244.252C74.9338 242.798 81.1335 241.453 81.1335 241.453Z" fill="#FFF2E3"/>
<path d="M109.608 156.454C109.608 156.454 104.69 218.115 102.076 231.267C102.076 231.267 106.131 238.691 109.576 240.729C113.022 242.766 116.724 242.561 116.801 244.041C116.877 245.521 105.753 245.392 104.216 244.361C102.678 243.33 100.956 238.98 99.0471 237.955C97.1385 236.93 95.8832 234.418 97.1833 231.01C98.4835 227.602 97.7598 156.749 97.7598 156.749L109.608 156.454Z" fill="#FFCAA1"/>
<path d="M111.382 241.414L109.186 242.971C107.365 242.685 105.683 241.823 104.389 240.511C102.185 238.301 97.0873 231.196 97.0873 231.196C96.6069 231.972 96.3171 232.85 96.2419 233.759C96.2419 234.944 96.9977 239.467 97.1194 240.748L97.2411 242.029L98.0993 241.972L97.7662 237.244C97.7662 237.244 99.3802 238.589 99.8926 238.961C100.818 239.896 101.581 240.979 102.153 242.164C102.794 243.445 103.024 244.496 104.683 244.951C106.342 245.405 110.511 245.521 112.49 245.412C114.911 245.277 117.108 245.021 117.281 244.207C117.595 242.76 111.382 241.414 111.382 241.414Z" fill="#FFF2E3"/>
<path d="M97.8174 57.4708C97.8174 57.4708 98.9062 66.5421 98.5412 67.3108C98.1761 68.0796 96.5365 69.585 94.8585 69.3416C93.1805 69.0982 87.8135 66.4075 87.5124 64.6458C87.2114 62.8841 87.6213 47.5987 87.8327 47.6756C88.044 47.7525 97.8174 57.4708 97.8174 57.4708Z" fill="#FFBF96"/>
<path d="M68.7918 24.6066C67.7406 23.8079 66.8387 22.8298 66.1275 21.7174C65.2681 20.3327 64.8534 18.7178 64.9393 17.0903C65.0252 15.4627 65.6075 13.9005 66.6078 12.614C67.9848 10.7804 69.7873 9.30943 71.8596 8.32823C73.7311 7.35715 75.7927 6.80827 77.8991 6.72025C79.215 6.70062 80.5092 7.05582 81.6308 7.74437C82.7524 8.43292 83.655 9.42642 84.2333 10.6089C85.7127 13.4212 85.7191 16.5731 85.1491 19.5777C84.8987 20.9453 84.3338 22.236 83.4991 23.3479C82.6643 24.4597 81.5826 25.3621 80.3393 25.9839C78.9954 26.5736 77.5475 26.8894 76.0802 26.9128C74.6648 26.9769 73.1982 27.0474 71.898 26.426C70.8011 25.9314 69.7598 25.3215 68.7918 24.6066Z" fill="#655151"/>
<path d="M110.159 21.5573C112.285 25.3178 113.81 29.9624 112.08 33.7805C110.831 36.58 107.764 37.6755 105.08 38.598C102.397 39.5205 98.6755 39.008 96.2354 40.7762C93.4686 42.7941 92.5335 47.1312 90.6314 49.8667C89.9909 50.8212 89.3504 51.7886 88.71 52.7943C88.0119 53.9282 87.6789 53.8962 86.3531 53.7104C85.3142 53.5623 84.2957 53.2957 83.3173 52.9161C79.3118 51.335 75.9226 48.5044 73.6528 44.8441C70.6931 40.2053 69.6892 34.5833 70.8604 29.2064C71.8204 24.8098 73.9618 20.7586 77.0536 17.4893C79.0622 15.3353 81.6058 13.7525 84.4253 12.9024C85.8822 12.4893 87.4095 12.3867 88.9085 12.6014C90.5481 12.8576 92.1108 13.5431 93.8016 13.3893C96.4531 13.1587 99.1687 12.9409 101.756 13.6007C105.676 14.5873 108.289 18.2133 110.159 21.5573Z" fill="#543E3E"/>
<path d="M112.215 44.844C111.527 47.1322 110.476 49.2951 109.102 51.2502C108.885 51.5692 108.636 51.8654 108.359 52.1343C108.231 52.2496 107.546 52.6276 107.514 52.7749C107.898 51.152 108.285 49.5334 108.673 47.919C109.314 45.2412 109.954 42.2879 109.23 39.5908C108.323 36.1345 107.748 32.5992 107.514 29.0333C107.373 27.2075 109.557 24.1197 111.318 26.2786C112.388 27.5598 112.683 29.6034 112.785 31.1858C113.089 34.3066 113.166 37.4454 113.016 40.5774C112.9 42.0238 112.632 43.454 112.215 44.844Z" fill="#AD5E36"/>
<path d="M107.36 21.9031C107.36 21.9031 111.261 27.342 111.235 36.0417C111.235 40.4044 111.459 44.8632 110.05 49.0721C108.641 53.281 105.035 59.7514 100.136 60.2703C97.9913 60.5533 95.8101 60.3079 93.7819 59.5553C91.7537 58.8028 89.9401 57.566 88.4988 55.9524C85.2965 52.5571 83.6249 48.2649 82.2159 43.9471C80.6916 39.2449 79.6925 34.3377 79.9359 29.3408C80.0512 26.8743 80.4546 24.1004 81.9918 22.0824C84.3358 19.001 94.7433 8.00785 107.36 21.9031Z" fill="#FFCAA1"/>
<path d="M88.9087 37.1565C88.5874 37.3777 88.3149 37.6623 88.1078 37.9928C87.9007 38.3234 87.7635 38.6928 87.7046 39.0784C88.4419 38.4575 89.3225 38.0304 90.2664 37.8356C91.3184 37.6103 92.4 37.5584 93.4687 37.6818C93.5321 37.6911 93.5965 37.6749 93.648 37.637C93.6798 37.6011 93.6999 37.5564 93.7057 37.5089C93.9747 36.1059 91.5025 36.439 90.7724 36.5607C90.1184 36.6365 89.4854 36.8388 88.9087 37.1565Z" fill="#AD5E36"/>
<path d="M106.726 34.895C107.834 34.8182 108.827 34.895 109.698 35.6318C109.741 35.6583 109.775 35.6966 109.796 35.742C109.818 35.7875 109.826 35.8381 109.82 35.888C109.82 35.7983 109.301 35.6574 109.23 35.6382C108.274 35.4162 107.273 35.474 106.348 35.8047C105.936 35.9801 105.534 36.179 105.144 36.4005C104.76 36.5735 104.504 36.4005 104.504 35.9713C104.446 35.1064 106.156 34.9335 106.726 34.895Z" fill="#AD5E36"/>
<path d="M94.6599 41.2564C94.3077 40.0777 93.379 39.0463 92.2134 39.2064C91.0477 39.3666 90.7019 40.3852 90.7019 41.4742C90.6515 41.9596 90.7319 42.4495 90.9346 42.8934C91.1373 43.3372 91.4549 43.7187 91.8547 43.9983C92.128 44.1814 92.4423 44.2941 92.7697 44.3265C93.097 44.359 93.4273 44.31 93.7312 44.1841C94.788 43.7293 95.0122 42.4224 94.6599 41.2564Z" fill="#864023"/>
<path d="M108.11 39.5908C107.776 38.0277 105.868 37.2589 104.907 38.7324C104.267 39.7254 104.613 41.2629 105.279 42.1533C105.521 42.4496 105.865 42.6456 106.243 42.7036C106.622 42.7615 107.008 42.6773 107.328 42.4673C107.625 42.2373 107.847 41.9255 107.969 41.5704C108.206 40.9381 108.255 40.2504 108.11 39.5908Z" fill="#864023"/>
<path d="M112.682 37.4704L111.933 37.5537C110.626 37.6807 109.313 37.7278 108.001 37.6946C102.842 37.5612 97.7954 36.1574 93.3085 33.6074C91.3866 32.458 89.5287 31.2048 87.7429 29.8533C87.0704 29.3665 85.8215 27.7905 84.9697 28.3735C83.1636 29.6547 82.9395 33.4152 82.7409 35.4204C82.5456 37.4144 82.5456 39.4227 82.7409 41.4167C82.7409 41.7114 83.3814 46.2854 82.6577 45.9011C78.8662 43.8639 76.5925 33.018 76.7911 31.5638C77.2394 28.4311 77.4315 25.1575 79.0583 22.326C81.007 19.1027 84.1102 16.7431 87.7365 15.7275C90.42 14.9844 93.2445 15.0292 96.0241 15.0869C98.6499 15.1381 101.417 15.0036 103.889 16.0414C106.643 17.1945 108.154 19.3022 109.82 21.6469C111.249 23.7256 112.341 26.0175 113.054 28.4375C113.952 30.9813 114.586 33.6112 114.943 36.2852C115.033 37.2782 114.764 37.2013 113.829 37.3551L112.682 37.4704Z" fill="#543E3E"/>
<path d="M76.0611 44.5108C76.2035 45.6583 76.7955 46.7022 77.707 47.4134C78.6185 48.1245 79.7749 48.4446 80.9222 48.3033C83.2791 47.983 84.9315 47.2719 84.6049 44.8568C84.2782 42.4416 82.043 39.5075 79.6733 39.8278C79.1224 39.883 78.5886 40.05 78.1046 40.3187C77.6205 40.5874 77.1964 40.9522 76.8582 41.3906C76.52 41.8291 76.2749 42.3319 76.1378 42.8685C76.0008 43.405 75.9747 43.9639 76.0611 44.5108Z" fill="#FFCAA1"/>
<path d="M83.9004 19.7698C83.2599 20.6923 83.1318 21.6917 83.6122 22.044C84.0925 22.3964 84.5216 21.6724 85.1557 20.7628C85.7897 19.8531 86.4366 19.0459 85.9242 18.7127C85.4118 18.3796 84.5408 18.8473 83.9004 19.7698Z" fill="#766565"/>
<path d="M81.6587 25.7598C81.0183 26.6823 80.8966 27.6817 81.3769 28.034C81.8573 28.3863 82.28 27.656 82.9204 26.7527C83.5609 25.8495 84.1693 25.0423 83.689 24.7091C83.2087 24.376 82.2992 24.8373 81.6587 25.7598Z" fill="#766565"/>
<path d="M78.2578 25.8687C77.6173 26.7912 77.4892 27.7905 77.9696 28.1429C78.4499 28.4952 78.8726 27.7713 79.5131 26.8616C80.1535 25.9519 80.762 25.1512 80.2816 24.818C79.8013 24.4849 78.8918 24.9462 78.2578 25.8687Z" fill="#766565"/>
<path d="M99.4763 50.2958H99.7004C100.481 50.3981 101.274 50.3414 102.032 50.1292C102.32 50.0203 103.082 49.3861 103.069 50.078C103.031 52.7942 99.6108 55.4977 97.4396 52.98C97.0122 52.4581 96.7119 51.8441 96.5622 51.1863C96.4533 50.7314 96.2035 49.905 96.5622 49.5142C96.9208 49.1234 97.2795 49.6167 97.5293 49.7833C98.12 50.1271 98.7929 50.3042 99.4763 50.2958Z" fill="#FFF2E3"/>
<path d="M102.64 45.8179C102.606 45.8805 102.568 45.9405 102.525 45.9972C101.942 46.6891 100.712 46.7788 99.8862 46.8172C100.45 46.5874 100.943 46.2115 101.314 45.7282C101.496 45.4847 101.618 45.2015 101.669 44.902C101.72 44.6024 101.7 44.295 101.609 44.0049C101.462 43.5885 101.334 43.1657 101.225 42.7236C101.116 42.2816 100.873 41.8716 101.007 41.4424C101.165 41.6442 101.306 41.8585 101.43 42.083C101.718 42.7236 102.006 43.3258 102.262 43.9665C102.474 44.543 102.903 45.2605 102.64 45.8179Z" fill="#F5AB87"/>
<path d="M82.6707 36.894C82.6066 36.375 82.549 35.8497 82.5105 35.3308C82.4017 33.9278 82.6386 30.9681 80.5892 30.8464C78.2515 30.6991 78.6294 35.3693 79.0457 36.7146C79.4824 37.963 80.0024 39.1808 80.602 40.3597C81.1848 41.5962 81.5819 42.9223 82.1775 44.133C83.2086 46.2279 83.8747 49.3285 82.818 51.5323C82.2544 52.7175 81.4282 53.499 81.5691 54.9212C81.634 55.6783 81.8903 56.4065 82.3138 57.0374C82.7372 57.6683 83.314 58.1812 83.99 58.5279C83.3258 57.6821 82.9558 56.6426 82.9362 55.5673C82.9165 54.492 83.2483 53.4396 83.8811 52.5701C84.4511 51.8206 85.2517 51.2376 85.6872 50.3984C85.997 49.7496 86.1422 49.0346 86.1099 48.3163C86.1099 46.1895 85.0596 44.3509 84.1885 42.461C83.4179 40.6879 82.9067 38.8129 82.6707 36.894Z" fill="#543E3E"/>
<path d="M87.4995 63.4224C87.4995 63.4224 89.6835 68.1054 94.1411 67.9068C97.4715 67.7786 98.445 63.4224 98.445 63.4224L109.519 66.0938C109.519 66.0938 112.785 80.6681 109.346 86.4401C105.906 92.2122 104.862 101.527 104.862 101.527C104.862 101.527 109.659 112.084 110.518 118.965C111.376 125.845 109.73 157.543 109.73 157.543L83.1636 157.575C83.1636 157.575 82.1004 129.766 82.1004 120.586C82.1004 111.405 86.8527 101.412 86.8527 101.412C86.8527 101.412 80.2239 81.4432 78.738 77.8941C77.6044 75.2035 74.1523 68.2143 74.1523 68.2143C74.3909 67.925 74.6877 67.6893 75.0234 67.5224C75.35 67.343 87.4995 63.4224 87.4995 63.4224Z" fill="#FFBF96"/>
<path d="M155.734 238.642C155.734 238.642 155.694 237.691 155.445 237.627C155.196 237.563 148.468 235.941 148.304 238.182C148.14 240.423 148 244.35 148 244.35C148 244.35 153.143 246.872 155.37 245.046C157.597 243.22 169.382 251.207 173 243.769C173 243.788 156.068 239.178 155.734 238.642Z" fill="#623A2B"/>
<path d="M164 241.524C164 241.524 163.631 243 162.969 243C162.307 243 155.04 240.69 155.001 239.495C154.963 238.299 155.745 236.668 156.594 237.059C157.443 237.45 161.587 241.162 164 241.524Z" fill="#512413"/>
<path d="M148 244.472V245.693C151.983 248.277 155.006 246.597 155.832 245.57C156.659 244.543 162.155 248.045 167.627 248C173.099 247.954 173 244 173 244C169.385 251.508 157.615 243.431 155.384 245.292C153.153 247.153 148 244.472 148 244.472Z" fill="#745042"/>
<path d="M173 243.689C169.382 251.317 157.602 243.112 155.375 245.002C153.147 246.893 148 244.28 148 244.28C148 244.28 148.08 242.081 148.189 240C148.189 239.987 149.022 245.508 173 243.689Z" fill="#512413"/>
<path d="M122.904 238.102C122.904 238.102 122.904 237.148 123.25 237.071C123.596 236.994 132.172 235.149 132.434 237.385C132.697 239.621 132.998 243.554 132.998 243.554C132.998 243.554 126.459 246.27 123.545 244.515C120.631 242.76 105.714 251.184 100.86 243.874C100.86 243.862 122.494 238.653 122.904 238.102Z" fill="#623A2B"/>
<path d="M111.799 241.183C111.799 241.183 112.324 242.465 113.208 242.413C114.091 242.362 123.737 240.126 123.762 239.089C123.788 238.051 122.706 236.661 121.572 237.032C120.438 237.404 115.007 240.786 111.799 241.183Z" fill="#512413"/>
<path d="M133.004 243.439L133.049 244.65C128.028 247.321 124.083 245.783 122.975 244.797C121.867 243.81 114.918 247.475 107.879 247.616C100.84 247.757 100.834 243.836 100.834 243.836C105.689 251.158 120.605 242.74 123.519 244.477C126.433 246.213 133.004 243.439 133.004 243.439Z" fill="#745042"/>
<path d="M100.936 243.945C105.791 251.261 120.707 242.843 123.621 244.585C126.535 246.328 133.075 243.625 133.075 243.625C133.075 243.625 132.914 241.485 132.722 239.46C132.722 239.473 131.794 244.887 100.936 243.945Z" fill="#512413"/>
<path d="M123.545 231.177C123.545 231.177 124.71 236.975 124.582 237.526C124.454 238.077 126.119 239.191 127.785 239.262C129.45 239.332 131.493 239.031 131.518 237.827C131.544 236.622 131.518 230.844 131.518 230.844C131.518 230.844 126.452 229.185 123.545 231.177Z" fill="#9E664F"/>
<path d="M156.451 231.971C156.451 231.971 156.112 237.884 156.317 238.378C156.522 238.871 155.036 240.236 153.377 240.543C151.718 240.851 149.669 240.838 149.477 239.653C149.285 238.467 148.51 232.734 148.51 232.734C148.51 232.734 153.294 230.415 156.451 231.971Z" fill="#9E664F"/>
<path d="M130.052 142.45C128.13 135.057 117.038 137.274 116.186 139.606C115.385 141.79 115.782 174.898 117.531 185.218C116.89 191.477 121.572 210.44 121.476 214.86C121.367 219.665 121.412 226.507 122.116 230.677C122.674 234.13 132.332 233.932 133.581 230.677C134.791 227.538 130.519 188.87 130.193 186.269C130.583 181.868 130.052 142.45 130.052 142.45Z" fill="#655151"/>
<path d="M156.208 215.527C155.567 211.516 157.175 194.751 156.253 187.339C158.238 179.1 158.712 142.617 157.873 140.317C157.034 138.017 145.916 135.768 144.007 143.161C144.007 143.161 143.527 179.145 143.847 186.186C143.672 186.87 143.584 187.574 143.584 188.281C143.584 188.281 145.724 228.557 146.242 232.01C146.575 234.239 157.931 234.13 158.04 231.235C158.193 227.013 156.989 220.274 156.208 215.527Z" fill="#655151"/>
<path d="M116.564 130.951C116.564 130.951 124.872 158.078 125.5 160C126.128 161.922 133.989 147.782 136.5 148C139.011 148.218 143 150 145.5 161C147 162 158.661 128.126 158.661 128.126L116.564 130.951Z" fill="#655151"/>
<path d="M135.425 57.6565C135.425 57.6565 122.379 57.0158 118.37 64.3638C114.361 71.7118 118.152 97.5804 118.088 101.623C118.024 105.665 115.347 124.608 114.61 125.787C113.874 126.966 114.732 128.76 116.186 129.368C117.64 129.977 129.463 129.605 135.656 129.778C141.849 129.951 157.585 126.575 157.585 126.575C157.585 126.575 153.204 108.49 153.416 101.623C153.627 94.7552 162.568 70.3345 159.135 66.1191C155.702 61.9038 146.319 58.0793 135.425 57.6565Z" fill="#E6DACC"/>
<path d="M131.39 47.2911C131.39 47.2911 129.77 58.88 130.218 59.8666C130.667 60.8532 132.735 62.8263 134.887 62.5572C137.039 62.2882 143.956 58.9697 144.404 56.7211C144.853 54.4725 144.673 34.9013 144.404 34.991C144.135 35.0807 131.39 47.2911 131.39 47.2911Z" fill="#F5B27A"/>
<path d="M133.798 80.623L122.36 61.5644L116.448 64.6586C116.448 64.6586 118.152 97.5933 118.088 101.636C118.024 105.678 115.347 128.017 114.61 129.183C113.874 130.349 114.732 132.155 116.186 132.764C116.986 133.103 130.551 135.326 130.551 135.326L135.118 130.893L139.287 135.73L157.585 129.964C157.585 129.964 153.204 108.49 153.416 101.623C153.563 96.5426 158.629 64.3767 158.629 64.3767C158.629 64.3767 156.067 62.8969 153.121 61.1736L133.798 80.623Z" fill="#7F6E6E"/>
<path d="M134.541 131.47L135.118 130.906L135.579 131.444C134.593 113.084 134.343 80.4054 134.343 80.0723L133.798 80.6232L133.273 79.752C133.273 80.0787 133.555 113.084 134.541 131.47Z" fill="#655151"/>
<path d="M135.809 96.7668C135.809 96.9987 135.878 97.2254 136.007 97.4181C136.136 97.6109 136.319 97.7612 136.533 97.8499C136.747 97.9387 136.983 97.9619 137.21 97.9166C137.437 97.8714 137.646 97.7598 137.81 97.5958C137.974 97.4318 138.086 97.223 138.131 96.9955C138.176 96.7681 138.153 96.5324 138.064 96.3182C137.975 96.104 137.825 95.9209 137.633 95.7921C137.44 95.6632 137.213 95.5945 136.981 95.5945C136.671 95.5945 136.372 95.718 136.153 95.9379C135.933 96.1577 135.809 96.4559 135.809 96.7668Z" fill="#655151"/>
<path d="M135.809 86.0044C135.809 86.2362 135.878 86.4629 136.007 86.6557C136.136 86.8485 136.319 86.9988 136.533 87.0875C136.747 87.1762 136.983 87.1994 137.21 87.1542C137.437 87.109 137.646 86.9973 137.81 86.8334C137.974 86.6694 138.086 86.4605 138.131 86.2331C138.176 86.0057 138.153 85.77 138.064 85.5557C137.975 85.3415 137.825 85.1584 137.633 85.0296C137.44 84.9008 137.213 84.832 136.981 84.832C136.671 84.832 136.372 84.9555 136.153 85.1754C135.933 85.3953 135.809 85.6935 135.809 86.0044Z" fill="#655151"/>
<path d="M135.809 108.042C135.809 108.274 135.878 108.5 136.007 108.693C136.136 108.886 136.319 109.036 136.533 109.125C136.747 109.214 136.983 109.237 137.21 109.192C137.437 109.147 137.646 109.035 137.81 108.871C137.974 108.707 138.086 108.498 138.131 108.271C138.176 108.043 138.153 107.808 138.064 107.593C137.975 107.379 137.825 107.196 137.633 107.067C137.44 106.938 137.213 106.87 136.981 106.87C136.671 106.87 136.372 106.993 136.153 107.213C135.933 107.433 135.809 107.731 135.809 108.042Z" fill="#655151"/>
<path d="M135.809 120.041C135.809 120.273 135.878 120.5 136.007 120.692C136.136 120.885 136.319 121.035 136.533 121.124C136.747 121.213 136.983 121.236 137.21 121.191C137.437 121.146 137.646 121.034 137.81 120.87C137.974 120.706 138.086 120.497 138.131 120.27C138.176 120.042 138.153 119.807 138.064 119.592C137.975 119.378 137.825 119.195 137.633 119.066C137.44 118.937 137.213 118.869 136.981 118.869C136.671 118.869 136.372 118.992 136.153 119.212C135.933 119.432 135.809 119.73 135.809 120.041Z" fill="#655151"/>
<path d="M130.218 56.0166C130.218 56.0166 124.134 62.4229 124.127 63.6593C124.121 64.8957 129.251 72.532 129.687 71.4621C130.122 70.3923 133.529 62.6279 133.529 62.6279C133.529 62.6279 130.654 56.023 130.218 56.0166Z" fill="#FFF2E3"/>
<path d="M133.517 62.6279C133.517 62.6279 136.45 72.4487 137.122 72.5064C137.795 72.5641 150.034 66.8945 150.207 64.8893C150.38 62.8842 145.57 53.4734 144.629 55.0941C143.521 57.016 133.517 62.6279 133.517 62.6279Z" fill="#FFF2E3"/>
<path d="M113.24 32.1341C113.457 35.1771 116.237 39.0465 118.594 38.1752C120.355 37.5346 119.356 31.4294 118.786 30.2827C118.216 29.136 116.269 28.5978 115.142 28.9438C113.662 29.3986 113.137 30.7055 113.24 32.1341Z" fill="#F5B27A"/>
<path d="M116.673 25.1064C116.673 25.1064 115.289 34.498 117.275 35.286C119.26 36.074 119.471 26.8361 119.471 26.8361L116.673 25.1064Z" fill="#543E3E"/>
<path d="M117.691 10.7114H117.505C116.781 10.7114 115.987 10.5769 115.404 10.9997C113.003 12.7294 115.897 23.8122 116.301 26.2594C116.884 29.8405 118.863 29.3152 121.918 30.1032C124.307 30.7438 126.504 31.8137 128.963 32.2877C131.108 32.6977 133.267 33.0437 135.438 33.3063C137.852 33.601 140.446 33.4281 142.816 33.8445C144.308 34.1071 143.95 34.5812 143.975 36.1379L144.033 40.0329C144.033 40.6287 144.129 47.1759 144.142 47.1759C144.667 47.0094 146.14 47.1183 146.415 46.6058C146.456 46.462 146.473 46.3129 146.467 46.1637C146.511 45.837 146.575 45.5231 146.652 45.19C146.801 44.5476 147.001 43.9178 147.248 43.3065C147.769 42.0633 148.392 40.8655 149.112 39.7254C150.534 37.3935 152.167 35.1513 153.166 32.5824C155.01 27.8482 155.235 22.1786 154.242 17.2074C153.268 12.3706 149.054 8.98811 145.064 6.56013C143.822 5.8106 142.227 5.27888 141.164 4.2795C140.1 3.28012 139.646 1.71699 138.659 0.743234C134.496 -3.38882 122.328 10.2053 117.691 10.7114Z" fill="#543E3E"/>
<path d="M121.848 14.2285C121.848 14.2285 117.781 19.6866 117.64 28.5273C117.595 31.5831 117.134 34.8119 117.089 37.9445C117.082 41.6767 117.798 45.375 119.196 48.8352C120.176 51.2183 122.052 52.5637 124.525 53.153C126.001 53.509 127.498 53.7701 129.008 53.9346C131.045 54.1524 134.029 54.5752 135.861 53.3452C139.102 51.2055 145.468 45.1964 148.132 33.8894C150.796 22.5823 149.278 17.1818 147.613 14.9076C145.308 11.7236 134.939 0.352495 121.848 14.2285Z" fill="#FFC593"/>
<path d="M120.707 15.9581C120.711 15.9749 120.711 15.9924 120.707 16.0093C124.281 18.3732 128.841 18.4693 133.132 18.4885C136.335 18.4885 139.838 18.4245 142.374 16.4385C141.433 17.1753 142.854 22.2682 143.098 23.3317C143.681 25.8942 144.846 27.0089 146.454 29.0205C147.248 30.0134 147.19 30.0391 146.883 31.3203C146.716 32.0058 145.16 39.7574 146.531 39.0591C150.425 37.0603 152.935 26.08 152.762 24.6001C152.589 23.1203 152.602 10.628 141.875 7.64912C140.946 7.39287 140.03 7.3288 139.101 7.09818C138.112 6.80983 137.137 6.47201 136.181 6.08599C133.417 5.05891 130.414 4.86513 127.541 5.52864C122.853 6.77786 120.528 11.4865 120.707 15.9581Z" fill="#543E3E"/>
<path d="M153.973 36.7146C153.192 38.7069 151.539 40.853 149.733 41.6474C147.427 42.6724 145.685 40.3662 146.025 38.1944C146.46 35.35 148.715 32.4864 151.603 31.9483C153.947 31.5063 154.761 33.473 154.351 35.4718C154.259 35.8956 154.132 36.3112 153.973 36.7146Z" fill="#FFC593"/>
<path d="M134.189 34.1071C134.23 33.7909 134.334 33.486 134.494 33.2105C134.654 32.935 134.868 32.6943 135.123 32.5028C135.378 32.3112 135.669 32.1726 135.978 32.0951C136.287 32.0176 136.609 32.0028 136.924 32.0515C137.239 32.1003 137.541 32.2116 137.812 32.3789C138.083 32.5462 138.318 32.7662 138.504 33.0258C138.689 33.2854 138.82 33.5795 138.89 33.8906C138.959 34.2017 138.966 34.5237 138.909 34.8374C138.704 36.1187 137.667 36.2212 136.347 36.0226C135.028 35.824 133.984 35.414 134.189 34.1071Z" fill="#543E3E"/>
<path d="M120.445 31.5318C120.535 31.0064 120.828 30.5378 121.262 30.2276C121.695 29.9174 122.234 29.7908 122.76 29.8751C123.286 29.9595 123.758 30.248 124.072 30.6781C124.387 31.1082 124.52 31.6452 124.441 32.1724C124.268 33.2743 123.513 33.7291 122.411 33.5562C121.309 33.3832 120.278 32.6337 120.445 31.5318Z" fill="#543E3E"/>
<path d="M119.536 26.1377L119.625 26.1889C120.687 26.6283 121.82 26.8714 122.968 26.9064C123.592 26.935 124.212 27.0056 124.826 27.1178C125.348 27.3285 125.91 27.4183 126.472 27.3805C127.112 27.246 127.112 25.9583 126.677 25.6252C126.241 25.2921 125.325 25.3113 124.755 25.228C123.679 25.0806 122.59 24.9653 121.553 24.7924C121.156 24.7283 120.765 24.6514 120.375 24.5489C119.984 24.4464 119.824 24.5489 119.734 24.9781C119.635 25.2779 119.566 25.587 119.529 25.9007C119.513 25.955 119.513 26.0128 119.529 26.0672C119.527 26.0909 119.529 26.1148 119.536 26.1377Z" fill="#655151"/>
<path d="M133.856 28.7644C134.008 28.843 134.173 28.895 134.343 28.9182C134.881 29.0638 135.433 29.156 135.989 29.1936C137.467 29.2073 138.937 29.4228 140.357 29.8343C140.457 29.8807 140.566 29.9048 140.677 29.9048C140.788 29.9048 140.897 29.8807 140.997 29.8343C141.091 29.7599 141.163 29.6629 141.209 29.5524C141.375 29.1936 141.753 28.2711 141.394 27.9124C141.151 27.6882 140.754 27.8035 140.427 27.765C139.934 27.6882 139.441 27.5344 138.954 27.4447C138.122 27.2846 137.276 27.1692 136.437 27.086C135.74 26.9674 135.027 26.9674 134.33 27.086C133.831 27.2077 133.875 27.6882 133.779 28.1174C133.728 28.2952 133.728 28.484 133.779 28.6619C133.799 28.6998 133.825 28.7344 133.856 28.7644Z" fill="#655151"/>
<path d="M127.797 29.5073C127.878 30.2152 127.815 30.9321 127.612 31.615C127.285 32.2556 124.749 38.9822 124.704 40.161C124.714 40.6551 124.865 41.136 125.138 41.5477C125.412 41.9594 125.796 42.285 126.247 42.4864C127.02 42.4412 127.786 42.3167 128.534 42.1149C128.534 42.1149 126.138 41.1539 126.126 40.6542C126.448 38.7692 126.917 36.9121 127.528 35.1C127.977 33.9533 129.45 30.3081 127.797 29.5073Z" fill="#F5B27A"/>
<path d="M145.762 12.5116C146.403 13.4662 146.505 14.504 146.012 14.8307C145.519 15.1574 145.096 14.4335 144.468 13.4854C143.841 12.5373 143.226 11.7173 143.726 11.3905C144.225 11.0638 145.135 11.5635 145.762 12.5116Z" fill="#766565"/>
<path d="M147.895 18.6425C148.535 19.5906 148.638 20.6284 148.138 20.9616C147.639 21.2947 147.229 20.5644 146.601 19.6163C145.974 18.6681 145.359 17.8481 145.858 17.5214C146.358 17.1947 147.267 17.6944 147.895 18.6425Z" fill="#766565"/>
<path d="M151.36 18.8217C152 19.7762 152.096 20.8076 151.603 21.1408C151.11 21.4739 150.694 20.7436 150.06 19.7955C149.426 18.8473 148.824 18.0273 149.317 17.7006C149.81 17.3739 150.726 17.8736 151.36 18.8217Z" fill="#766565"/>
<path d="M132.863 45.5679C132.818 45.6868 132.753 45.7973 132.671 45.8946C132.145 46.6053 131.421 47.1447 130.59 47.4449C128.969 47.8517 127.273 47.8517 125.652 47.4449C124.792 47.3359 123.978 46.9973 123.295 46.4648C122.678 45.8209 122.252 45.0179 122.065 44.1457C122.027 43.9791 121.841 43.441 122.027 43.3321C122.212 43.2232 122.975 43.6972 123.16 43.7805C124.762 44.5172 126.363 45.3437 128.162 45.3693C129.334 45.3693 130.506 45.2988 131.678 45.2476C131.871 45.2476 132.678 45.1002 132.806 45.2476C132.847 45.2884 132.875 45.3412 132.885 45.3986C132.896 45.4559 132.888 45.5151 132.863 45.5679Z" fill="#FFF2E3"/>
<path d="M123.429 35.6703C122.823 35.6529 122.22 35.5908 121.623 35.4845C121.431 35.4845 121.245 35.4204 121.066 35.4012C119.762 35.176 118.533 34.635 117.486 33.8253C116.128 32.8067 116.455 31.2628 116.807 30.1417C116.852 30.0007 116.903 29.8085 116.961 29.5907C117.281 28.3799 117.672 26.8745 118.658 26.772H118.812C119.914 26.8402 121.011 26.9728 122.097 27.1692C127.221 28.0212 127.157 28.6618 127.118 29.091C127.118 29.3025 127.118 29.5523 127.067 29.8278C126.952 31.5959 126.785 34.2737 125.415 35.1706C124.817 35.5294 124.126 35.7032 123.429 35.6703ZM118.812 27.7009C118.626 27.7009 118.338 28.0084 117.864 29.8278C117.8 30.0712 117.748 30.2826 117.697 30.43C117.255 31.7689 117.364 32.5632 118.049 33.0822C118.971 33.791 120.05 34.2678 121.194 34.4723L121.764 34.5556C122.314 34.6593 122.87 34.7193 123.429 34.735C123.945 34.7629 124.457 34.6381 124.902 34.3762C125.882 33.7356 126.042 31.2436 126.132 29.7509C126.132 29.5331 126.164 29.3345 126.177 29.1487C125.869 28.9565 124.71 28.5465 121.95 28.0853C120.912 27.8977 119.864 27.7694 118.812 27.7009Z" fill="#766565"/>
<path d="M139.166 38.835C138.319 38.8132 137.476 38.7275 136.642 38.5788L135.944 38.4763C134.836 38.2993 133.747 38.0205 132.69 37.6434C132.569 37.605 132.428 37.5602 132.268 37.5217C131.416 37.2719 130.244 36.9388 129.975 35.9586C129.739 34.0713 130.153 32.1601 131.147 30.5389C131.306 30.2775 131.524 30.0565 131.783 29.8931C132.042 29.7297 132.335 29.6285 132.639 29.5972C134.08 29.6919 135.515 29.8651 136.937 30.1161C143.341 31.1539 143.303 31.7753 143.264 32.2686C143.264 32.48 143.264 32.7298 143.226 32.9989C143.156 34.8055 143.04 37.5409 141.305 38.4058C140.634 38.7115 139.902 38.8584 139.166 38.835ZM132.761 30.6414C132.61 30.67 132.467 30.7305 132.341 30.8189C132.215 30.9073 132.109 31.0215 132.031 31.1539C131.224 32.5189 130.87 34.1044 131.019 35.6831C131.134 36.0931 132.044 36.3238 132.588 36.5095L133.062 36.6505C134.054 37.0058 135.076 37.2674 136.117 37.432L136.834 37.5409C138.333 37.7716 139.973 37.9189 140.882 37.4641C142.06 36.8747 142.163 34.4211 142.227 32.9797C142.227 32.7811 142.227 32.6017 142.227 32.4287C141.811 32.2109 140.306 31.7497 136.789 31.1795C134.804 30.8336 133.171 30.6414 132.729 30.6414H132.761Z" fill="#766565"/>
<path d="M130.711 31.9226C129.187 29.738 126.869 30.936 126.76 30.9873L126.241 30.0199C127.135 29.5284 128.18 29.3873 129.172 29.6242C130.164 29.861 131.032 30.4588 131.608 31.3012L130.711 31.9226Z" fill="#766565"/>
<path d="M128.905 57.4963C128.905 57.4963 132.876 106.184 133.241 112.898C134.163 129.971 127.733 141.15 113.342 141.63C111.638 141.688 114.815 127.85 115.513 107.523C116.064 91.3727 112.144 64.2293 115.001 62.4996C122.385 58.0024 128.905 57.4963 128.905 57.4963Z" fill="#543E3E"/>
<path d="M111.158 66.7279C115.142 69.7324 118.876 94.0442 120.445 95.9661C122.014 97.888 129.571 99.4639 131.909 99.7586C131.909 99.7586 130.737 106.402 125.652 105.473C120.566 104.544 116.768 103.654 113.662 98.471C110.556 93.2883 103.351 69.6427 103.351 69.6427C103.351 69.6427 105.676 65.6004 108.609 65.9207C109.512 65.9791 110.386 66.2561 111.158 66.7279Z" fill="#FFBF96"/>
<path d="M128.905 57.4963C124.53 58.0972 120.304 59.5048 116.442 61.6476C116.442 61.6476 124.986 74.4602 127.458 77.2084L120.31 80.2066L132.972 108.868C132.972 108.868 129.936 59.3413 128.905 57.4963Z" fill="#655151"/>
<path d="M155.465 61.2635C155.465 61.2635 157.508 61.6287 161.229 65.2994C164.355 68.3937 165.911 73.8198 167.41 77.8109C169.69 83.8776 174.006 89.1372 175.396 95.4666C176.107 98.721 177.196 102.014 175.454 105.499C174.173 108.061 167.768 110.585 167.685 110.374C167.211 109.317 165.533 107.594 163.253 103.327C159.846 96.9208 156.471 92.161 153.941 80.7129C151.789 71.1099 148.843 59.4249 155.465 61.2635Z" fill="#543E3E"/>
<path d="M147.158 57.4644C147.158 57.4644 137.404 104.832 137.001 111.553C135.72 132.616 141.036 135.371 143.104 137.229C145.173 139.087 155.67 143.148 159.462 142.796C161.248 142.629 157.214 126.229 157.828 108.996C158.526 89.6687 163.753 68.9316 161.287 65.4338C157.271 59.6681 147.158 57.4644 147.158 57.4644Z" fill="#543E3E"/>
<path d="M147.158 57.4644C147.158 57.4644 142.182 79.6173 141.029 85.2035C139.876 90.7898 137.27 108.452 137.27 108.452L152.429 81.8915L145.961 77.1637L158.597 62.6663C158.597 62.6663 154.76 59.1364 147.158 57.4644Z" fill="#655151"/>
<path d="M75.4717 21.0703C75.6409 21.5308 75.7065 22.023 75.6638 22.5117C75.6595 22.7164 75.6249 22.9193 75.5614 23.1139L75.7855 22.8641C76.0289 22.5886 76.2146 22.2747 76.4708 22.0056C76.7196 21.7992 76.9078 21.529 77.0152 21.2241C77.0152 21.2241 77.06 21.2241 77.06 21.2625C77.0348 21.5039 76.9287 21.7296 76.759 21.9031C76.5157 22.1978 76.2531 22.4605 76.0289 22.7744C75.6939 23.226 75.3069 23.6367 74.8761 23.998C75.1451 23.8827 75.4461 23.8058 75.7215 23.6905C76.1157 23.5122 76.4948 23.3022 76.8551 23.0627C76.8551 23.0627 76.8935 23.1011 76.8551 23.1139C76.2209 23.663 75.4513 24.0324 74.6263 24.1838C74.4598 24.3247 74.2804 24.4528 74.1075 24.5809L73.9538 24.6899C74.244 24.6103 74.5482 24.5955 74.8448 24.6464C75.1414 24.6973 75.4231 24.8128 75.6702 24.9845C75.6702 24.9845 75.7023 25.0358 75.6702 25.0294C75.3042 24.8531 74.9093 24.7445 74.5046 24.7091C74.1068 24.7373 73.722 24.8627 73.3838 25.0742C73.0636 25.2792 72.7433 25.4842 72.4103 25.6764C72.5633 25.624 72.7195 25.5812 72.8778 25.5483C73.3289 25.553 73.7708 25.6767 74.1588 25.907C73.7841 25.7629 73.3923 25.6681 72.9931 25.6252C72.394 25.7294 71.8202 25.9468 71.3023 26.2658L71.0397 26.4195C71.1772 26.393 71.3163 26.3759 71.456 26.3683C71.7328 26.3395 72.0118 26.3395 72.2886 26.3683C72.2886 26.3683 72.3463 26.4324 72.2886 26.4452C72.0527 26.4957 71.8125 26.5236 71.5713 26.5285C71.2951 26.5636 71.0171 26.5828 70.7387 26.5861C70.6747 26.5861 70.2776 26.8808 70.1687 26.9C70.2071 26.5092 70.9949 26.2594 71.2831 26.1249L71.5137 25.9967C71.6917 25.8216 71.8161 25.5994 71.8723 25.3561C71.9026 25.0992 71.9497 24.8445 72.0132 24.5938C72.0132 24.5553 72.0773 24.6386 72.0773 24.6514C72.1158 25.0618 72.0381 25.4747 71.8531 25.843L72.6024 25.3881C72.8219 25.1816 72.9832 24.9209 73.07 24.6322C73.1596 24.3439 73.1596 24.03 73.2685 23.7545C73.2685 23.7161 73.3326 23.8058 73.3326 23.8186C73.3608 24.2853 73.2421 24.749 72.9931 25.1447L73.6336 24.7475C73.7617 24.6642 73.8898 24.5745 74.0115 24.4784C74.1799 24.1473 74.2801 23.7856 74.3061 23.415C74.3061 23.0562 74.3061 22.6975 74.3061 22.3452C74.3061 22.3131 74.3509 22.3452 74.3573 22.3452C74.5174 22.9806 74.4862 23.6492 74.2676 24.267C74.62 23.9926 74.9537 23.6951 75.2668 23.3766C75.6574 22.6783 75.3884 21.8519 75.35 21.0959C75.4333 21.0191 75.4653 21.0575 75.4717 21.0703Z" fill="#805D4A"/>
<path d="M77.8093 23.1011C77.6995 22.9278 77.5312 22.7995 77.335 22.7396C77.1388 22.6796 76.9276 22.692 76.7397 22.7744C76.5412 22.8449 75.9776 23.2997 76.0096 23.5496C76.0416 23.7994 76.6501 23.9596 76.8678 23.998C77.4955 24.1133 78.1808 23.8507 77.8093 23.1011Z" fill="#FFD0CF"/>
<path d="M76.6757 25.4907C76.5953 25.5899 76.4822 25.6573 76.3567 25.6808C76.2311 25.7043 76.1013 25.6823 75.9905 25.6188C75.8047 25.5227 75.1386 25.0679 75.2924 24.8052C75.4939 24.704 75.71 24.6349 75.9328 24.6002C76.0541 24.5595 76.1848 24.556 76.3081 24.5903C76.4314 24.6245 76.5416 24.6949 76.6245 24.7924C76.72 24.8806 76.7784 25.0018 76.7879 25.1314C76.7974 25.2611 76.7573 25.3895 76.6757 25.4907Z" fill="#FFD0CF"/>
<path d="M74.9339 25.702C74.6969 25.5739 74.1781 25.3625 73.9156 25.5163C73.448 25.7981 73.8643 26.2017 74.1397 26.3811C74.4151 26.5605 74.9467 27.0217 75.2797 26.6117C75.6128 26.2017 75.2605 25.8814 74.9339 25.702Z" fill="#FFD0CF"/>
<path d="M77.3228 20.5002C77.1537 20.5059 76.988 20.5497 76.8382 20.6285C76.6885 20.7073 76.5585 20.819 76.4581 20.9553C76.3576 21.0915 76.2893 21.2487 76.2583 21.4151C76.2272 21.5815 76.2343 21.7527 76.2788 21.916C76.4646 22.4734 77.2075 22.2876 77.5598 21.7879C77.912 21.2882 78.1106 20.5066 77.3548 20.5066L77.3228 20.5002Z" fill="#FFD0CF"/>
<path d="M75.856 20.6284C75.6639 20.2633 75.1195 19.9878 74.889 20.4683C74.836 20.7566 74.8616 21.0538 74.963 21.3288C75.0644 21.6039 75.2379 21.8465 75.4654 22.0314C76.0546 22.3261 76.0098 20.9231 75.856 20.6284Z" fill="#FFD0CF"/>
<path d="M73.9794 21.9224C73.704 22.6015 74.3444 23.7867 74.8952 22.7873C75.2603 22.1146 74.3572 21.0063 73.9794 21.9224Z" fill="#FFD0CF"/>
<path d="M76.2788 21.8968C76.231 21.7323 76.223 21.5589 76.2553 21.3908C76.2876 21.2226 76.3593 21.0645 76.4645 20.9294C76.5029 20.9294 76.5349 20.9294 76.5541 20.9807C76.5798 21.0729 76.5798 21.1704 76.5541 21.2626C76.5147 21.3492 76.493 21.4429 76.4901 21.538C76.4901 21.7046 76.7335 21.538 76.7783 21.4676C76.8231 21.3971 77.0089 21.2113 77.1049 21.2754C77.201 21.3394 77.0729 21.538 77.0281 21.5957C76.9833 21.6534 76.8231 21.7623 76.8552 21.8391C76.8872 21.916 77.1306 21.8391 77.1946 21.7943C77.2587 21.7494 77.4764 21.6662 77.534 21.7494V21.7943C77.1818 22.2748 76.4581 22.4221 76.2788 21.8968Z" fill="#805D4A"/>
<path d="M73.2621 26.1953C73.134 25.6059 72.4487 25.8301 72.1285 26.1184C71.8083 26.4067 72.0773 26.7014 72.4103 26.8103C72.7433 26.9192 73.3774 26.6885 73.2621 26.1953Z" fill="#99D4C0"/>
<path d="M72.1478 24.8307C72.5257 24.8307 72.705 24.2286 72.6538 23.9275C72.577 23.4726 72.0133 23.4662 71.8404 23.857C71.7059 24.1197 71.6931 24.8243 72.1222 24.8307H72.1478Z" fill="#99D4C0"/>
<path d="M73.2686 24.344C73.3768 24.3539 73.4852 24.3268 73.576 24.2671C73.6615 24.2109 73.7322 24.1351 73.7824 24.0459C73.8325 23.9568 73.8606 23.8569 73.8642 23.7546C73.8642 23.4535 73.7041 23.114 73.3582 23.114C73.0124 23.114 72.8138 23.7546 72.9099 24.0621C72.9327 24.1408 72.9795 24.2103 73.0439 24.2609C73.1082 24.3114 73.1868 24.3405 73.2686 24.344Z" fill="#FFD0CF"/>
<path d="M76.6823 22.8C76.836 22.8449 76.5991 23.1268 76.5542 23.178C76.5224 23.2127 76.4925 23.2491 76.4646 23.2869C76.4646 23.2869 76.4005 23.3382 76.4646 23.351C76.5322 23.3475 76.599 23.3346 76.6631 23.3126C76.736 23.2853 76.811 23.2639 76.8873 23.2485C76.9833 23.2485 76.9705 23.3061 76.8873 23.3638C76.804 23.4215 76.7271 23.4343 76.6439 23.4855C76.5606 23.5368 76.5606 23.5496 76.5926 23.6072C76.6247 23.6649 76.8937 23.7033 77.0089 23.7738C77.0089 23.7738 77.0986 23.8251 77.105 23.8443C77.105 23.8763 77.105 23.8955 77.0602 23.9147C77.0193 23.9502 76.9741 23.9803 76.9257 24.0044H76.8488C76.6119 23.966 76.029 23.8443 75.9906 23.556C75.9522 23.2677 76.4518 22.9218 76.6823 22.8Z" fill="#805D4A"/>
<path d="M75.7664 24.7092C75.7664 24.7092 75.6191 24.754 75.6191 24.7989C75.6191 24.8437 75.8625 24.7989 75.8945 24.7989C75.9265 24.7989 75.8945 24.9206 75.8497 24.9398C75.8048 24.959 75.6063 24.895 75.5807 24.9719C75.5551 25.0487 75.6703 25.164 75.728 25.2089C75.7856 25.2537 75.8945 25.305 75.8689 25.4011C75.8433 25.4972 75.7984 25.4715 75.7472 25.4587C75.4974 25.273 75.1836 24.9847 75.2925 24.8181C75.4667 24.726 75.655 24.6632 75.8497 24.6323C75.8625 24.6644 75.8113 24.69 75.7664 24.7092Z" fill="#805D4A"/>
<path d="M74.9915 21.4034C75.1195 21.4034 75.222 21.6853 75.3373 21.6853C75.3373 21.5828 75.2284 21.1343 75.4526 21.2432C75.5358 21.2817 75.5423 21.4546 75.5423 21.5251C75.5423 21.5956 75.5423 21.8454 75.6703 21.7557C75.7984 21.6661 75.7664 21.5507 75.8241 21.4739C75.8817 21.397 75.9201 21.397 75.9521 21.4162C75.9521 21.8262 75.7984 22.1978 75.4654 22.0568C75.2412 21.8958 75.0749 21.6666 74.9915 21.4034Z" fill="#805D4A"/>
<path d="M73.9858 22.7232C74.1972 22.672 74.3189 22.9026 74.4085 23.0435C74.447 22.9026 74.3637 22.672 74.479 22.5631C74.5943 22.4542 74.5494 22.8962 74.5879 22.9667C74.6583 22.8962 74.8441 22.5054 74.9786 22.4734C74.9729 22.5827 74.9445 22.6896 74.8953 22.7873C74.543 23.4279 74.146 23.1717 73.9858 22.7232Z" fill="#805D4A"/>
<path d="M73.07 23.9341C73.1341 23.9917 73.1469 24.1199 73.1789 24.2032C73.2237 24.1135 73.1789 23.8828 73.3326 23.8508C73.4863 23.8188 73.3326 24.1583 73.3326 24.2288C73.4945 24.0729 73.668 23.9294 73.8514 23.7996C73.8398 23.8896 73.8093 23.9761 73.7619 24.0534C73.7144 24.1307 73.651 24.197 73.576 24.248C73.4852 24.3077 73.3768 24.3348 73.2686 24.3249C73.1876 24.3218 73.1096 24.2937 73.0454 24.2443C72.9811 24.195 72.9338 24.1269 72.9099 24.0494V23.9597C72.9163 23.8828 73.0124 23.8636 73.07 23.9341Z" fill="#805D4A"/>
<path d="M71.7314 24.344H71.7955C71.8916 24.4144 71.9492 24.5874 72.0132 24.6899C72.0709 24.581 72.0965 24.3312 72.2246 24.2927C72.2886 24.4144 72.1221 24.5426 72.1734 24.6643C72.3399 24.581 72.3975 24.4016 72.5769 24.3248C72.5 24.5554 72.3463 24.7668 72.1221 24.7796C71.8788 24.8309 71.7763 24.5938 71.7314 24.344Z" fill="#805D4A"/>
<path d="M72.1284 26.1184C72.252 26.0138 72.3929 25.9314 72.5447 25.875C72.5447 25.9775 72.2886 26.1313 72.2309 26.1761C72.2886 26.3106 72.4679 26.1761 72.5639 26.2145C72.5191 26.2978 72.2757 26.3427 72.2821 26.4388C72.2886 26.5348 72.5768 26.5477 72.6472 26.5861C72.8714 26.695 72.7305 26.7975 72.5511 26.8231H72.3974C72.0772 26.7014 71.8274 26.4003 72.1284 26.1184Z" fill="#805D4A"/>
<path d="M74.1461 26.3812C73.8707 26.2018 73.4544 25.7983 73.9219 25.5164C74.0636 25.476 74.2119 25.4642 74.3581 25.4818C74.5044 25.4994 74.6457 25.546 74.7737 25.6189C74.6712 25.7534 74.3766 25.574 74.2613 25.6829C74.3126 25.7342 74.5816 25.7598 74.5752 25.8559C74.5688 25.952 74.2677 25.8175 74.2293 25.8047C73.8258 25.6573 74.1845 26.1506 74.3126 26.2531C74.4407 26.3556 74.5175 26.4325 74.3958 26.5286L74.1461 26.3812Z" fill="#805D4A"/>
<path d="M71.1742 18.5783C70.8708 18.7504 70.6086 18.9865 70.4057 19.2702C70.3143 19.3832 70.2389 19.5082 70.1815 19.6418C70.1815 19.5649 70.1815 19.4816 70.1815 19.4047C70.1815 19.1421 70.2263 18.8858 70.1815 18.6232C70.1431 18.3946 70.1675 18.1599 70.2519 17.9441C70.2519 17.9441 70.2519 17.9441 70.2071 17.9441C70.1178 18.0829 70.0773 18.2474 70.0918 18.4117C70.0918 18.6872 70.0918 18.9435 70.0918 19.2189C70.0632 19.6191 70.0825 20.0213 70.1495 20.4169C70.0534 20.2247 69.9253 20.0453 69.8356 19.8596C69.7013 19.5771 69.592 19.2834 69.509 18.9819H69.4706C69.5539 19.5742 69.7975 20.1325 70.1751 20.5963L70.2712 21.0511C70.2712 21.096 70.2712 21.1408 70.2712 21.1857C70.1522 21.007 69.9952 20.8569 69.8114 20.7462C69.6275 20.6354 69.4215 20.5667 69.208 20.545C69.208 20.545 69.1696 20.545 69.208 20.545C69.485 20.6224 69.747 20.7458 69.9829 20.9102C70.1986 21.1148 70.3593 21.3704 70.4505 21.6533C70.5273 21.916 70.6106 22.1786 70.6939 22.4349C70.6357 22.337 70.5716 22.2429 70.5017 22.153C70.2549 21.936 69.9539 21.7898 69.6307 21.7302C69.9001 21.8281 70.1561 21.9594 70.3928 22.121C70.6775 22.4541 70.895 22.8391 71.0333 23.2549L71.1102 23.4599C71.0469 23.3807 70.9784 23.3058 70.9052 23.2357C70.7734 23.0888 70.6251 22.9577 70.4633 22.8449C70.4633 22.8449 70.4057 22.8449 70.4121 22.8449C70.512 22.9841 70.6281 23.111 70.7579 23.2229C70.9052 23.3574 71.0269 23.524 71.187 23.6457C71.2254 23.6457 71.2959 24.0172 71.3471 24.0813C71.5072 23.8507 71.1806 23.3638 71.1037 23.146C71.1037 23.0819 71.0589 23.0243 71.0397 22.9666C71.0288 22.7842 71.0687 22.6023 71.155 22.4413C71.2588 22.2871 71.3529 22.1267 71.4368 21.9608C71.4368 21.9608 71.3792 21.9608 71.3727 21.9608C71.1595 22.1607 71.0101 22.4193 70.9436 22.704C70.8732 22.5118 70.8091 22.3132 70.7451 22.1146C70.7237 21.8958 70.759 21.6752 70.8476 21.4739C70.9308 21.2754 71.0781 21.1088 71.1422 20.9102C71.1422 20.9102 71.0845 20.9102 71.0781 20.9102C70.8462 21.1477 70.6959 21.4528 70.649 21.7815C70.5978 21.6149 70.5466 21.4483 70.5017 21.2818L70.4249 20.9614C70.4893 20.7053 70.6024 20.4639 70.7579 20.2504C70.9116 20.0454 71.1038 19.8788 71.2575 19.6738C71.2575 19.6738 71.2575 19.6738 71.219 19.6738C70.8385 19.9399 70.5446 20.3119 70.3736 20.7436C70.2963 20.4528 70.2364 20.1576 70.1943 19.8596C70.3032 19.3022 70.8348 18.9819 71.2062 18.5783C71.219 18.5783 71.187 18.5783 71.1742 18.5783Z" fill="#805D4A"/>
<path d="M68.9711 18.5784C69.111 18.5414 69.2594 18.5529 69.392 18.6111C69.5246 18.6692 69.6336 18.7706 69.7012 18.8987C69.778 19.0269 69.8677 19.5394 69.7012 19.6547C69.5347 19.77 69.1824 19.5842 69.0607 19.5009C68.6636 19.2703 68.4267 18.809 68.9711 18.5784Z" fill="#FFD0CF"/>
<path d="M68.478 20.3977C68.4749 20.488 68.5042 20.5763 68.5606 20.6468C68.617 20.7173 68.6967 20.7653 68.7854 20.7821C68.9327 20.8141 69.5027 20.8782 69.5412 20.6668C69.4802 20.5211 69.3982 20.3851 69.2978 20.2632C69.2481 20.1867 69.1779 20.1258 69.0952 20.0873C69.0126 20.0488 68.9208 20.0343 68.8303 20.0454C68.7379 20.0486 68.6501 20.0867 68.5847 20.1521C68.5193 20.2175 68.4812 20.3053 68.478 20.3977Z" fill="#FFD0CF"/>
<path d="M69.3169 21.3138C69.5026 21.3586 69.8805 21.4803 69.9573 21.6917C70.0854 22.0569 69.6691 22.0825 69.4386 22.0505C69.208 22.0185 68.7148 22.0057 68.7148 21.6469C68.7148 21.2882 69.0607 21.2625 69.3169 21.3138Z" fill="#99D4C0"/>
<path d="M70.4505 17.3868C70.539 17.4684 70.608 17.5688 70.6523 17.6807C70.6966 17.7926 70.7152 17.913 70.7065 18.033C70.6979 18.1531 70.6624 18.2696 70.6025 18.374C70.5427 18.4784 70.4601 18.568 70.3609 18.6361C70.0022 18.8539 69.682 18.4118 69.7204 17.9954C69.7589 17.579 70.015 17.0473 70.4313 17.3996L70.4505 17.3868Z" fill="#FFD0CF"/>
<path d="M71.1744 18.149C71.4498 18.0401 71.8661 18.149 71.77 18.5077C71.6659 18.6896 71.5144 18.8399 71.3317 18.9426C71.149 19.0452 70.9419 19.0964 70.7324 19.0907C70.2841 18.9754 70.9566 18.2387 71.1744 18.149Z" fill="#FFD0CF"/>
<path d="M71.5841 19.7186C71.424 20.2119 70.5273 20.5579 70.6939 19.7635C70.8091 19.219 71.8083 19.046 71.5841 19.7186Z" fill="#FFD0CF"/>
<path d="M70.361 18.636C70.4616 18.5681 70.5452 18.4778 70.6052 18.3722C70.6652 18.2667 70.7 18.1486 70.7068 18.0274C70.6962 18.0179 70.6826 18.0127 70.6684 18.0127C70.6542 18.0127 70.6405 18.0179 70.63 18.0274C70.5776 18.0707 70.536 18.1255 70.5083 18.1876C70.4888 18.252 70.4585 18.3127 70.4186 18.3669C70.3289 18.4438 70.2969 18.2388 70.2905 18.194C70.2841 18.1491 70.2905 17.9505 70.2073 17.9377C70.124 17.9249 70.1048 18.0915 70.0984 18.1491C70.092 18.2068 70.0984 18.3285 70.0984 18.3605C70.0984 18.3926 69.9575 18.2196 69.9383 18.1747C69.9191 18.1299 69.8486 17.9761 69.7782 17.9954C69.6949 18.4246 70.0023 18.8474 70.361 18.636Z" fill="#805D4A"/>
<path d="M69.9894 22.3581C70.3417 22.1018 70.6299 22.5439 70.6299 22.845C70.6299 23.146 70.3865 23.1845 70.156 23.0884C69.9254 22.9923 69.7012 22.5759 69.9894 22.3581Z" fill="#99D4C0"/>
<path d="M71.2318 22.1402C71.0332 21.9544 71.2318 21.5572 71.3791 21.4163C71.5264 21.2754 71.9235 21.4547 71.8466 21.7558C71.7698 22.0569 71.4751 22.3452 71.2446 22.153L71.2318 22.1402Z" fill="#99D4C0"/>
<path d="M70.8604 21.3458C70.7982 21.3012 70.7512 21.2386 70.7259 21.1664C70.707 21.0952 70.7046 21.0207 70.719 20.9485C70.7335 20.8763 70.7643 20.8084 70.8092 20.75C70.8375 20.7032 70.8754 20.6629 70.9203 20.6316C70.9652 20.6004 71.0162 20.579 71.0699 20.5687C71.1237 20.5584 71.179 20.5596 71.2322 20.572C71.2855 20.5845 71.3356 20.608 71.3792 20.6411C71.5777 20.8461 71.3792 21.2368 71.1806 21.365C71.1316 21.3947 71.0747 21.4088 71.0175 21.4054C70.9603 21.402 70.9055 21.3812 70.8604 21.3458Z" fill="#FFD0CF"/>
<path d="M69.7203 18.937C69.6179 18.8922 69.6179 19.1548 69.6179 19.2061C69.6115 19.2378 69.6115 19.2705 69.6179 19.3022C69.6179 19.3342 69.6179 19.3598 69.6179 19.3406C69.5796 19.3121 69.5488 19.2747 69.5282 19.2317C69.4999 19.1823 69.4678 19.1352 69.4321 19.0908C69.3873 19.0395 69.3681 19.0908 69.3681 19.142C69.3681 19.1933 69.4193 19.2573 69.4385 19.3214C69.4577 19.3855 69.4385 19.3919 69.4385 19.4111C69.4385 19.4303 69.2336 19.3278 69.1375 19.3086C69.1077 19.3051 69.0776 19.3051 69.0479 19.3086C69.0479 19.3086 69.0479 19.347 69.0479 19.3662C69.0547 19.4036 69.0654 19.4401 69.0799 19.4751L69.1247 19.5072C69.2784 19.5905 69.6435 19.8019 69.7652 19.6609C69.8869 19.52 69.81 19.11 69.7203 18.937Z" fill="#805D4A"/>
<path d="M69.3297 20.3914C69.3297 20.3914 69.3873 20.4875 69.3681 20.5131C69.3489 20.5387 69.2336 20.4042 69.2144 20.385C69.1952 20.3658 69.144 20.4426 69.176 20.4875C69.208 20.5323 69.3297 20.5708 69.3041 20.6284C69.2785 20.6861 69.1696 20.6925 69.1183 20.6861C69.0671 20.6797 68.9839 20.6861 68.9518 20.7245C68.9198 20.763 68.9518 20.795 68.9903 20.8078C69.2144 20.8078 69.5154 20.8078 69.5411 20.6669C69.5411 20.622 69.4002 20.4106 69.3297 20.3081C69.2977 20.3273 69.3169 20.3658 69.3297 20.3914Z" fill="#805D4A"/>
<path d="M71.2832 18.9691C71.2063 18.9178 71.027 19.0139 70.9694 18.9691C71.0142 18.9114 71.2768 18.7192 71.1039 18.6744C71.0398 18.6744 70.963 18.7513 70.9309 18.7833C70.8989 18.8153 70.7772 18.9627 70.7516 18.8538C70.726 18.7449 70.7964 18.6936 70.7964 18.6231C70.7964 18.5527 70.7964 18.5399 70.758 18.5334C70.5787 18.7705 70.4762 19.0331 70.758 19.0972C70.9418 19.106 71.1241 19.0615 71.2832 18.9691Z" fill="#805D4A"/>
<path d="M71.2128 20.1479C71.1231 20.0197 70.9502 20.0902 70.8349 20.1479C70.8797 20.0518 71.0334 19.9685 71.0206 19.8532C71.0078 19.7379 70.8285 20.0005 70.7773 20.0197C70.726 20.0389 70.8477 19.6546 70.7773 19.5713C70.7279 19.6333 70.693 19.7055 70.6748 19.7827C70.5851 20.276 70.9182 20.3144 71.2128 20.1479Z" fill="#805D4A"/>
<path d="M71.1486 21.2306C71.0845 21.2306 71.0205 21.2947 70.9628 21.3203C70.9052 21.3459 71.0973 21.1281 71.0461 21.0576C70.9948 20.9872 70.8924 21.2178 70.8668 21.2626C70.8498 21.1029 70.8219 20.9445 70.7835 20.7886C70.7492 20.8446 70.7265 20.9068 70.7166 20.9717C70.7067 21.0366 70.7098 21.1029 70.7259 21.1665C70.7512 21.2388 70.7981 21.3014 70.8604 21.3459C70.9074 21.3784 70.9633 21.3958 71.0205 21.3958C71.0777 21.3958 71.1335 21.3784 71.1806 21.3459L71.2318 21.3075C71.251 21.269 71.2254 21.2306 71.1486 21.2306Z" fill="#805D4A"/>
<path d="M71.6674 22.0569H71.6161C71.5329 22.0569 71.424 22.1146 71.3407 22.1402C71.3407 22.0505 71.4624 21.9032 71.4112 21.8263C71.3151 21.8263 71.3471 22.0121 71.2639 22.0505C71.2126 21.9288 71.2639 21.8007 71.2062 21.679C71.166 21.7498 71.1481 21.8311 71.155 21.9123C71.1619 21.9935 71.1931 22.0707 71.2447 22.1338C71.3792 22.2619 71.5393 22.1851 71.6674 22.0569Z" fill="#805D4A"/>
<path d="M70.6428 22.845C70.6277 22.7292 70.5884 22.6179 70.5275 22.5183C70.4634 22.5567 70.5275 22.7746 70.5595 22.8258C70.4634 22.8707 70.425 22.7169 70.361 22.6913C70.2969 22.6657 70.4506 22.8963 70.4058 22.9475C70.361 22.9988 70.2008 22.8642 70.1432 22.8514C69.9703 22.8066 70.0023 22.9283 70.0856 23.0244C70.1146 23.0482 70.147 23.0676 70.1816 23.0821C70.3994 23.1846 70.6748 23.1333 70.6428 22.845Z" fill="#805D4A"/>
<path d="M69.4322 22.0504C69.6628 22.0504 70.0727 22.0504 69.951 21.6916C69.8933 21.5251 69.6372 21.4098 69.445 21.3457C69.445 21.4674 69.6756 21.5059 69.6948 21.6212C69.6436 21.6212 69.4834 21.5123 69.445 21.5699C69.4066 21.6276 69.6243 21.6916 69.6564 21.698C69.9382 21.807 69.5219 21.9095 69.4002 21.903C69.2785 21.8966 69.208 21.903 69.2273 22.012L69.4322 22.0504Z" fill="#805D4A"/>
<path d="M66.2492 23.3189C66.2642 23.1261 66.3438 22.944 66.4752 22.8022C66.6065 22.6603 66.7819 22.567 66.9729 22.5373C68.1193 22.3579 68.145 23.9403 68.3243 24.4592C68.3363 24.1786 68.416 23.905 68.5565 23.6619C68.697 23.4187 68.8942 23.2131 69.1313 23.0626C69.5412 22.7551 70.2393 22.422 70.726 22.9089C71.3152 23.5174 70.2905 24.0748 70.0856 24.5873C70.6364 24.299 71.2832 23.7353 72.0582 24.126C72.1699 24.1635 72.2716 24.2261 72.3553 24.3091C72.439 24.3921 72.5025 24.4932 72.5409 24.6047C72.5793 24.7162 72.5915 24.835 72.5767 24.9519C72.5618 25.0689 72.5203 25.1808 72.4553 25.2792C72.3109 25.438 72.1363 25.5663 71.9416 25.6565C71.7469 25.7467 71.5361 25.797 71.3216 25.8045C71.8853 25.8686 72.8395 25.7532 73.1213 26.2914C73.6465 27.2907 71.6675 27.2139 70.9246 27.0601C71.1936 27.3484 71.4305 27.6495 71.6931 27.9442C71.9557 28.2389 72.1222 28.5079 71.9301 28.777C71.3537 29.597 69.65 28.3157 69.5091 27.7264C69.855 28.2389 70.3417 30.4939 68.8303 30.1543C68.0489 29.9814 68.0681 28.9308 67.7287 28.5079C67.7287 28.9884 66.9025 30.7565 66.0186 29.9301C65.1348 29.1037 66.0186 28.4054 66.4477 27.7648C65.6664 28.5272 63.508 28.2325 63.1878 27.1947C62.8676 26.1568 64.7826 26.1825 65.6792 26.554C65.0144 26.2909 64.4201 25.8763 63.9435 25.3432C63.5913 24.9204 63.0725 24.0235 63.777 23.7096C64.6737 23.306 65.8009 24.3503 66.2812 24.8179C66.2125 24.3212 66.2017 23.8181 66.2492 23.3189Z" fill="#FFA29F"/>
<path d="M69.1697 26.9641C68.875 28.3222 66.0122 27.2524 66.6655 26.189C67.3187 25.1255 69.4002 25.9007 69.1697 26.9641Z" fill="#FFF9AA"/>
<path d="M73.512 24.2223C73.429 24.0757 73.3128 23.9506 73.1726 23.8571C73.0189 23.7611 72.4745 23.3382 72.3144 23.3703C73.0637 23.2165 74.0052 23.3703 74.2742 22.5695C74.62 21.5445 72.5898 20.9359 71.77 21.2498C71.5477 21.3426 71.348 21.4822 71.1844 21.659C71.0209 21.8359 70.8973 22.0459 70.8221 22.2748C70.899 22.0314 70.4891 21.5957 70.2713 21.4548C69.9892 21.2751 69.6572 21.1898 69.3234 21.2114C69.1777 21.2092 69.0331 21.2374 68.8989 21.2941C68.7646 21.3509 68.6437 21.4349 68.5437 21.541C68.4437 21.647 68.3669 21.7727 68.3181 21.9101C68.2693 22.0475 68.2496 22.1935 68.2603 22.3389C68.3115 22.9795 69.048 23.1909 69.6821 23.2614C69.0865 23.3703 68.2923 23.3575 68.1322 23.9596C68.0866 24.304 68.1663 24.6533 68.3567 24.9438C68.5472 25.2343 68.8358 25.4466 69.1697 25.542C69.3217 25.5923 69.4828 25.6088 69.6418 25.5905C69.8008 25.5722 69.9539 25.5194 70.0905 25.4359C70.227 25.3523 70.3437 25.24 70.4325 25.1068C70.5212 24.9736 70.5799 24.8226 70.6043 24.6643C70.5083 25.5676 71.6931 26.2018 72.5962 25.9456C72.891 25.887 73.1559 25.7266 73.3444 25.4923C73.5329 25.2581 73.6331 24.965 73.6273 24.6643C73.6177 24.5109 73.5786 24.3608 73.512 24.2223Z" fill="#FFFBC3"/>
<path d="M71.4816 23.6457C71.5713 23.383 71.1486 23.1908 70.886 23.1716C70.8101 23.1679 70.7346 23.186 70.6687 23.2238C70.6028 23.2617 70.5491 23.3176 70.514 23.3851C70.479 23.4525 70.464 23.5287 70.4709 23.6044C70.4778 23.6801 70.5063 23.7522 70.5529 23.8123C70.7451 24.0749 71.3983 23.8955 71.4816 23.6457Z" fill="#F5B27A"/>
<path d="M71.3984 27.2651C71.5435 27.1771 71.7091 27.1285 71.8787 27.1242C72.0452 27.1242 72.7113 27.0473 72.8074 27.1754C72.3335 26.5348 71.5265 26.1184 71.8083 25.2023C72.1541 23.9979 74.0499 24.6578 74.479 25.4586C74.7141 25.9512 74.7508 26.5155 74.5815 27.0345C74.6711 26.7462 75.2219 26.5797 75.4909 26.5732C75.8111 26.5724 76.119 26.6965 76.3491 26.9192C76.5792 27.1441 76.7192 27.4453 76.7427 27.7662C76.7663 28.0871 76.6719 28.4056 76.4772 28.6617C76.0481 29.2703 75.382 29.0012 74.8633 28.6617C75.2411 29.1358 75.8496 29.6162 75.6126 30.2889C75.4851 30.6256 75.2363 30.9023 74.9151 31.0647C74.5939 31.2272 74.2236 31.2635 73.877 31.1665C73.7222 31.0947 73.5839 30.9917 73.4706 30.864C73.3574 30.7363 73.2717 30.5867 73.2188 30.4244C73.1659 30.2621 73.147 30.0907 73.1633 29.9208C73.1796 29.7509 73.2306 29.5861 73.3134 29.4369C73.1977 29.6347 73.0335 29.7997 72.8362 29.9162C72.639 30.0327 72.4152 30.0969 72.1862 30.1027C71.9572 30.1085 71.7305 30.0556 71.5276 29.9492C71.3247 29.8428 71.1524 29.6862 71.0269 29.4945C70.8378 29.2169 70.7366 28.8887 70.7366 28.5528C70.7366 28.2168 70.8378 27.8887 71.0269 27.6111C71.1264 27.4721 71.2527 27.3545 71.3984 27.2651Z" fill="#FFBEBC"/>
<path d="M73.275 27.9506C73.3646 27.6431 73.7937 27.7136 74.0051 27.8609C74.0583 27.9166 74.0982 27.9837 74.1219 28.057C74.1456 28.1303 74.1525 28.208 74.142 28.2843C74.1316 28.3607 74.104 28.4337 74.0615 28.4979C74.0189 28.5621 73.9624 28.6159 73.8962 28.6553C73.576 28.8283 73.1917 28.2453 73.275 27.9506Z" fill="#FFF9AA"/>
<path d="M159.718 114.429C159.543 115.71 159.286 116.979 158.949 118.228C158.77 118.869 158.11 118.971 157.566 119.215L156.592 119.637C154.709 119.208 153.008 118.198 151.731 116.748C151.731 115.236 152.09 113.788 152.775 113.718C152.605 113.782 152.421 113.806 152.24 113.787C152.059 113.768 151.884 113.707 151.731 113.608C151.577 113.51 151.449 113.377 151.355 113.221C151.262 113.064 151.207 112.888 151.193 112.706C151.193 112.213 153.525 111.822 153.883 111.79C154.581 111.738 157.297 111.059 157.188 109.868C157.16 109.58 157.1 109.296 157.009 109.022C156.875 108.741 156.82 108.429 156.849 108.119C156.889 107.98 156.961 107.852 157.06 107.746C157.159 107.64 157.282 107.559 157.419 107.51C157.691 107.409 157.981 107.368 158.27 107.389C158.661 108.113 159.033 108.856 159.385 109.599C159.737 110.342 160.153 110.95 160.064 111.706C159.955 112.629 159.852 113.532 159.718 114.429Z" fill="#FFBF96"/>
<path d="M108.276 76.0554C109.453 77.4939 110.171 79.2517 110.34 81.1025C110.509 82.9532 110.121 84.8122 109.224 86.44C106.195 92.4491 106.022 101.815 106.022 101.815C106.022 101.815 114.533 111.943 122.264 133.033C128.387 149.728 135.906 166.179 138.833 184.078C141.913 202.641 141.932 221.583 138.89 240.152C138.173 244.419 138.25 247.75 134.317 249.121C126.965 251.639 119.375 244.534 113.297 248.359C105.439 253.285 95.6527 250.172 86.8528 250.172C77.5405 250.172 69.0673 248.922 59.9535 247.571C58.1859 247.308 56.367 247.033 54.8299 246.148C54.1712 245.698 53.4772 245.302 52.7548 244.963C50.8334 244.239 48.7199 245.213 46.8049 245.976C44.179 247.033 20.8022 249.89 20.8022 245.271C20.8022 242.375 47.6567 155.737 65.2245 123.552C69.6181 115.499 86.0522 101.476 86.0522 101.476C86.0522 101.476 81.0887 86.1005 80.2881 82.3144C80.2241 81.9684 81.4217 77.6442 81.4217 77.6442C86.2728 77.9775 91.1411 77.9775 95.9922 77.6442C100.115 77.366 104.218 76.8354 108.276 76.0554Z" fill="#FFADED"/>
<path d="M131.935 64.1526L129.053 62.0257C128.937 61.9135 128.797 61.8283 128.644 61.7763C128.492 61.7242 128.329 61.7066 128.169 61.7246C128.023 61.7925 127.897 61.8953 127.801 62.0238C127.705 62.1524 127.642 62.3027 127.618 62.4614C127.33 63.3903 127.054 64.3256 126.798 65.2673C126.625 65.9079 126.036 67.4647 126.798 67.9259C127.266 68.2078 128.521 67.8747 129.021 67.7722C129.509 67.6812 130.004 67.6277 130.5 67.612C131.002 67.6113 131.489 67.437 131.877 67.1187C132.171 66.7471 132.363 66.3056 132.434 65.8375C132.53 65.539 132.534 65.2184 132.445 64.9178C132.356 64.6172 132.178 64.3505 131.935 64.1526Z" fill="#D06E61"/>
<path d="M140.779 62.8136C141.527 64.4665 142.013 66.2258 142.22 68.0283C142.228 68.0618 142.227 68.0967 142.218 68.1299C142.21 68.1632 142.193 68.1937 142.169 68.219C142.146 68.2442 142.117 68.2634 142.084 68.2748C142.052 68.2862 142.017 68.2896 141.983 68.2845L139.998 68.528C139.454 68.592 138.916 68.6561 138.365 68.6817C137.368 68.7249 136.371 68.6322 135.399 68.4063C134.56 68.2077 133.542 68.1949 133.478 67.2083C133.337 65.3825 135.399 64.1077 136.904 63.2492C137.935 62.5968 139.131 62.2523 140.35 62.2562C140.415 62.2544 140.479 62.2699 140.536 62.3011C140.604 62.3478 140.652 62.4188 140.67 62.4997C140.702 62.6086 140.741 62.7111 140.779 62.8136Z" fill="#D06E61"/>
<path d="M134.964 66.5165C134.785 66.7855 134.592 67.0354 134.464 67.2147C134.163 67.6504 133.542 68.1949 132.934 68.0155C132.76 67.941 132.583 67.8768 132.402 67.8233C132.251 67.8106 132.099 67.8106 131.947 67.8233C130.999 67.8618 131.038 66.4844 131.172 65.9015C131.307 65.3185 131.557 64.3896 132.146 64.1654C132.606 64.0728 133.082 64.1083 133.523 64.2679C134.163 64.4216 135.399 64.4857 135.444 65.3185C135.4 65.755 135.233 66.1701 134.964 66.5165Z" fill="#C44A39"/>
<path d="M77.4253 101.956C76.6886 102.467 76.0397 103.095 75.5039 103.814C74.7861 104.962 74.3698 106.273 74.2934 107.626C74.1416 108.416 74.2239 109.233 74.5304 109.977C75.1709 111.175 76.6567 111.546 77.9825 111.745C78.2638 111.799 78.553 111.799 78.8343 111.745C79.1352 111.667 79.4109 111.512 79.6349 111.296C80.5635 110.47 80.9734 109.227 81.4346 108.093C81.8957 106.959 82.5426 105.736 83.6826 105.236C84.5216 104.865 85.5143 104.941 86.3597 104.595C87.8584 103.955 89.562 100.406 88.1466 99.0925C88.0403 98.9967 87.9192 98.9188 87.7879 98.8619C87.0655 98.5041 86.2777 98.2975 85.4728 98.2545C84.6678 98.2116 83.8625 98.3332 83.1062 98.612C80.9798 99.2975 79.2186 100.624 77.4253 101.956Z" fill="#543E3E"/>
<path d="M77.6749 105.338C76.8534 106.734 76.3137 108.277 76.0866 109.881C76.0414 110.092 76.0414 110.31 76.0866 110.521C76.3109 110.929 76.6455 111.266 77.0522 111.492C77.4588 111.719 77.921 111.826 78.3859 111.802C78.6853 111.643 78.9255 111.391 79.0711 111.085C80.0796 109.386 80.7535 107.509 81.0566 105.556C81.1019 105.351 81.104 105.139 81.063 104.934C81.0219 104.728 80.9385 104.533 80.818 104.361C80.6975 104.19 80.5426 104.045 80.3632 103.936C80.1837 103.828 79.9836 103.758 79.7756 103.73C78.8278 103.673 78.0912 104.647 77.6749 105.338Z" fill="#FFF2E3"/>
<path d="M135.137 81.0459C122.193 80.0209 116.82 90.9884 116.692 91.2447C116.564 90.9884 111.19 80.0209 98.2529 81.0459C82.0173 82.3271 70.3801 109.874 116.679 128.279C162.997 109.848 151.347 82.3207 135.137 81.0459Z" fill="#CB3349"/>
<path d="M77.028 109.182L76.7782 109.823C76.1378 111.444 76.5925 111.854 77.5148 113.231C78.1119 114.25 79.0448 115.029 80.1534 115.435C81.3539 115.949 82.6118 116.317 83.9001 116.53C84.3306 116.642 84.7871 116.589 85.1811 116.383C85.2579 116.325 85.9304 115.601 85.6614 115.512C85.9423 115.623 86.2519 115.641 86.5439 115.563C86.8359 115.484 87.0947 115.314 87.2818 115.076C87.6852 114.435 87.365 113.654 87.032 112.994C87.2117 113.094 87.4181 113.136 87.6227 113.114C87.8273 113.092 88.0199 113.007 88.1739 112.87C88.328 112.734 88.4358 112.553 88.4825 112.352C88.5292 112.152 88.5124 111.942 88.4346 111.751C88.355 111.6 88.2845 111.443 88.2232 111.284C88.1928 111.201 88.1921 111.11 88.2214 111.027C88.2506 110.944 88.3079 110.874 88.3834 110.829C88.5307 110.771 88.6844 110.829 88.8381 110.88C88.9981 110.886 89.156 110.841 89.2885 110.751C89.4211 110.661 89.5213 110.531 89.5746 110.38C90.0678 109.176 89.4785 108.375 88.5819 107.69C87.6852 107.004 84.9057 104.057 85.9752 102.686C86.2388 102.352 86.5372 102.047 86.8655 101.777C87.258 101.532 87.5785 101.187 87.7941 100.777C87.8533 100.571 87.8638 100.353 87.8249 100.142C87.7861 99.9311 87.6988 99.7318 87.57 99.5601C87.5011 99.4096 87.3997 99.2764 87.2731 99.1701C87.1464 99.0637 86.9976 98.9869 86.8376 98.9452C86.6775 98.9035 86.5102 98.8979 86.3478 98.9289C86.1853 98.9599 86.0318 99.0267 85.8984 99.1244C85.1234 99.5665 84.3613 100.021 83.6055 100.495C83.1188 100.796 82.6448 101.136 82.1709 101.418C81.4816 101.765 80.8559 102.227 80.32 102.782C79.7353 103.609 79.2333 104.491 78.8213 105.415C78.1562 106.638 77.5575 107.895 77.028 109.182Z" fill="#F5B27A"/>
<path d="M149.868 112.533C148.824 112.449 147.44 111.681 146.704 112.116L138.339 117.068C135.341 116.766 132.514 115.529 130.257 113.532C129.981 111.187 130.43 109.221 131.288 108.868C130.385 109.041 128.79 108.522 128.656 107.369C128.566 106.607 130.212 105.614 132.377 105.505C133.472 105.454 137.616 103.295 137.603 102.571C137.568 101.83 137.41 101.101 137.135 100.412C136.93 99.9699 136.079 99.656 135.906 98.8809C135.733 98.1057 135.585 96.549 137.545 96.3184C138.736 97.9904 140.914 101.264 141.958 103.032C142.136 103.375 142.351 103.697 142.598 103.993C143.316 104.755 145.16 104.557 146.076 104.557H146.902C146.87 104.557 147.498 106.562 148.241 108.574C149.067 110.72 149.868 112.533 149.868 112.533Z" fill="#F5B27A"/>
<path d="M150.303 113.282C149.934 113.332 149.568 113.402 149.208 113.494C148.747 113.724 148.458 112.43 148.362 112.174C147.312 109.349 145.653 106.825 144.846 104.076C144.628 103.327 147.113 102.923 147.619 103.071C148.125 103.218 151.693 112.975 150.303 113.282Z" fill="#FFF2E3"/>
<path d="M169.145 109.881C160.403 114.243 150.572 114.211 150.572 114.211C150.572 114.211 146.159 104.448 146.563 102.155C146.864 100.47 161.377 99.4447 172.309 98.1058C176.261 97.6317 176.767 106.088 169.145 109.881Z" fill="#543E3E"/>
<path d="M73.6528 68.9445C75.619 64.7741 79.3529 70.4692 80.4032 74.9216C82.2221 82.6732 74.4598 100.547 74.4598 100.547C74.4598 100.547 91.2462 107.113 92.0468 105.07C92.17 104.728 92.2622 104.377 92.3222 104.019C92.7128 102.135 93.1932 98.9708 93.6992 97.1322C94.7687 96.6261 95.2427 98.375 95.3772 98.7786C95.787 100.009 94.9993 101.456 95.0057 101.886C95.0441 103.635 98.0671 104.147 98.8036 104.102C99.1751 104.102 101.474 104.275 101.718 104.967C102.14 106.184 101.481 106.806 100.853 106.947C101.564 107.312 102.589 108.138 101.929 110.842C100.136 114.717 97.0039 115.396 97.0039 115.396L91.0028 111.553C91.0028 111.553 70.7579 107.747 68.0936 105.473C65.4293 103.199 71.6866 73.1214 73.6528 68.9445Z" fill="#FFBF96"/>
<path d="M74.0372 67.8299C74.1717 67.8299 75.3181 68.2847 75.664 68.3937C76.9449 68.7973 78.2899 69.1496 79.622 69.4635C83.8224 70.4682 88.1144 71.0413 92.4312 71.174C97.7291 71.3964 103.022 70.6206 108.033 68.8869C109.349 68.4131 110.633 67.8524 111.876 67.2085C111.876 67.2085 112.702 67.5672 113.688 69.4058C114.674 71.2444 115.814 73.6532 115.814 75.6327C115.814 77.6123 111.972 78.5988 104.805 79.5982C96.3908 80.6974 87.8696 80.6974 79.4555 79.5982C74.4791 78.8935 71.1295 77.4649 70.3866 76.6193C69.9767 76.1196 70.3162 75.274 70.4507 74.7423C70.8643 72.9229 71.5579 71.1789 72.5065 69.5724C72.8908 68.919 73.2751 67.9068 74.0372 67.8299Z" fill="#FFADED"/>
</g>
<defs>
<clipPath id="clip0">
<rect width="203" height="258" fill="white"/>
</clipPath>
</defs>
</svg>
